<?xml version="1.0" encoding="UTF-8" standalone="no"?>
<!-- Created with Inkscape (http://www.inkscape.org/) -->

<svg
   xmlns:dc="http://purl.org/dc/elements/1.1/"
   xmlns:cc="http://creativecommons.org/ns#"
   xmlns:rdf="http://www.w3.org/1999/02/22-rdf-syntax-ns#"
   xmlns:svg="http://www.w3.org/2000/svg"
   xmlns="http://www.w3.org/2000/svg"
   xmlns:sodipodi="http://sodipodi.sourceforge.net/DTD/sodipodi-0.dtd"
   xmlns:inkscape="http://www.inkscape.org/namespaces/inkscape"
   width="1000"
   height="196.31992"
   viewBox="0 0 264.58333 51.942979"
   version="1.1"
   id="svg8"
   inkscape:version="0.92.4 (5da689c313, 2019-01-14)"
   sodipodi:docname="A.svg">
  <defs
     id="defs2">
    <clipPath
       clipPathUnits="userSpaceOnUse"
       id="clipPath500">
      <path
         d="m 136.775,416.556 h 321.726 v 61.491 H 136.775 Z"
         id="path498"
         inkscape:connector-curvature="0" />
    </clipPath>
  </defs>
  <sodipodi:namedview
     id="base"
     pagecolor="#ffffff"
     bordercolor="#666666"
     borderopacity="1.0"
     inkscape:pageopacity="0.82352941"
     inkscape:pageshadow="2"
     inkscape:zoom="0.49497475"
     inkscape:cx="380.40999"
     inkscape:cy="159.4122"
     inkscape:document-units="px"
     inkscape:current-layer="layer1"
     showgrid="false"
     units="px"
     inkscape:window-width="1920"
     inkscape:window-height="1017"
     inkscape:window-x="1912"
     inkscape:window-y="-8"
     inkscape:window-maximized="1"
     inkscape:pagecheckerboard="true"
     fit-margin-top="0"
     fit-margin-left="0"
     fit-margin-right="0"
     fit-margin-bottom="0" />
  <metadata
     id="metadata5">
    <rdf:RDF>
      <cc:Work
         rdf:about="">
        <dc:format>image/svg+xml</dc:format>
        <dc:type
           rdf:resource="http://purl.org/dc/dcmitype/StillImage" />
        <dc:title></dc:title>
      </cc:Work>
    </rdf:RDF>
  </metadata>
  <g
     inkscape:label="Layer 1"
     inkscape:groupmode="layer"
     id="layer1"
     transform="translate(134.6341,-158.77599)">
    <path
       inkscape:connector-curvature="0"
       id="path492"
       style="fill:#000000;fill-opacity:1;fill-rule:nonzero;stroke:none;stroke-width:0.83253956"
       d="m -108.66138,158.77599 -25.97272,25.97274 25.97272,25.97024 25.97109,-25.97024 -30.32776,6.5038 2.41521,10.99283 -5.38903,-11.35499 -10.68234,-4.94861 10.65735,2.98798 6.47633,-24.32016 -3.78806,24.26437 29.804929,-4.95862 z" />
    <g
       id="g494"
       style="fill:#000000"
       transform="matrix(0.83253962,0,0,-0.83253962,-248.50454,556.76897)">
      <g
         id="g496"
         clip-path="url(#clipPath500)"
         style="fill:#000000">
        <g
           id="g502"
           transform="translate(297.8225,457.0651)"
           style="fill:#000000">
          <path
             d="m 0,0 c -2.828,0 -5.041,-0.388 -7.922,-1.108 -0.444,-0.11 -0.72,-0.39 -0.832,-0.776 -0.11,-0.497 -0.056,-0.943 0.112,-1.385 0.442,-1.052 1.218,-4.599 2.435,-4.433 1.218,0.222 2.716,0.444 3.823,0.554 1.606,0.168 2.438,0.168 3.326,0.058 1.883,-0.222 2.881,-1.552 2.881,-3.989 v -2.05 c -2.049,0.386 -4.601,0.83 -7.48,0.83 -7.536,0 -8.42,-3.821 -8.42,-8.586 0,-5.596 1.606,-9.583 8.42,-9.583 4.543,0 15.292,0.774 15.292,5.317 v 13.85 C 11.635,-3.933 7.81,0 0,0 m 3.823,-23.6 c -1.056,-0.442 -2.881,-0.998 -5.153,-0.998 -2.381,0 -2.937,0.998 -2.937,3.216 0,2.493 0.556,3.489 2.937,3.489 2.104,0 4.211,-0.498 5.153,-0.996 z m -28.248,23.49 c -2.491,0 -5.595,-0.72 -8.364,-1.996 v 10.14 c 0,1.493 -0.888,2.05 -1.998,2.05 -1.439,0 -5.816,-0.11 -5.816,-1.33 v -34.403 c 0,-1.052 0.39,-1.774 1.22,-2.384 3.435,-2.271 11.857,-2.435 15.012,-2.435 6.204,0 8.144,3.435 8.144,10.747 v 8.918 c 0,5.594 -0.11,10.693 -8.198,10.693 m 0.388,-19.889 c 0,-2.103 -0.388,-3.989 -1.996,-3.989 -2.657,0 -6.756,0.556 -6.756,0.942 V -8.42 c 1.494,0.776 4.099,1.33 6.756,1.33 1.608,0 1.996,-1.884 1.996,-3.933 z m 137.953,6.592 7.425,12.077 c 0.663,1.22 3.432,1.33 4.596,1.33 2.55,0 3.491,-0.554 3.379,-1.498 0,-0.329 -0.166,-0.663 -0.332,-1.049 l -7.258,-11.523 c 2.938,-4.709 7.922,-12.521 8.81,-14.958 0.166,-0.998 -0.776,-1.442 -3.215,-1.442 -0.664,0 -4.099,0.056 -4.875,1.551 l -8.53,14.183 v -13.685 c 0,-1.493 -0.888,-2.049 -1.995,-2.049 -1.44,0 -5.817,0.112 -5.817,1.329 V 8.754 c 0,1.22 4.377,1.332 5.817,1.332 1.107,0 1.995,-0.556 1.995,-2.052 z m -22.149,1.274 c 0,2.603 -0.22,4.931 -1.937,4.931 -2.937,0 -6.705,-0.942 -6.705,-1.44 v -20.333 c 0,-0.885 -1.051,-1.495 -1.993,-1.495 -1.383,0 -5.816,0.112 -5.816,1.329 v 23.822 c 0,2.438 7.034,5.319 15.79,5.319 8.032,0 8.529,-5.319 8.529,-10.803 v -18.172 c 0,-0.885 -1.107,-1.495 -2.105,-1.495 -1.442,0 -5.763,0.112 -5.763,1.329 z M -55.384,3.473 V 8.7 c 0,1.218 4.377,1.386 5.763,1.386 1.051,0 2.049,-0.61 2.049,-1.552 V 3.641 c 0,-0.888 -0.998,-1.495 -2.049,-1.495 -1.386,0 -5.763,0.112 -5.763,1.327 m 8.02,-5.632 v -26.262 c 0,-1.493 -0.885,-2.049 -1.995,-2.049 -1.44,0 -5.817,0.112 -5.817,1.329 v 27.704 c 0,1.217 4.377,1.329 5.817,1.329 1.11,0 1.995,-0.556 1.995,-2.051 m -27.779,-26.594 c 0,-0.883 -0.996,-1.717 -2.049,-1.717 -1.44,0 -6.259,0.332 -6.259,1.495 V 8.642 c 0,0.832 0.942,1.442 1.994,1.442 h 21.434 c 0.888,0 1.495,-0.998 1.495,-1.94 0,-1.386 -0.166,-5.485 -1.327,-5.485 h -15.288 v -8.475 h 12.075 c 0.773,0 1.383,-0.998 1.383,-1.94 0,-1.386 -0.11,-5.485 -1.22,-5.485 H -75.143 Z M 58.194,0 c -2.826,0 -5.043,-0.388 -7.925,-1.108 -0.441,-0.11 -0.719,-0.39 -0.829,-0.776 -0.11,-0.497 -0.054,-0.943 0.11,-1.385 0.446,-1.052 1.22,-4.599 2.437,-4.433 1.22,0.222 2.715,0.444 3.825,0.554 1.606,0.168 2.438,0.168 3.323,0.058 1.884,-0.222 2.879,-1.552 2.879,-3.989 v -2.05 c -2.047,0.386 -4.596,0.83 -7.477,0.83 -7.534,0 -8.42,-3.821 -8.42,-8.586 0,-5.596 1.605,-9.583 8.42,-9.583 4.542,0 15.29,0.774 15.29,5.317 v 13.85 C 69.827,-3.933 66.004,0 58.194,0 m 3.82,-23.6 c -1.051,-0.442 -2.879,-0.998 -5.15,-0.998 -2.384,0 -2.935,0.998 -2.935,3.216 0,2.493 0.551,3.489 2.935,3.489 2.105,0 4.209,-0.498 5.15,-0.996 z M 33.769,-0.11 c -2.494,0 -5.595,-0.72 -8.364,-1.996 v 10.14 c 0,1.493 -0.888,2.05 -1.996,2.05 -1.439,0 -5.816,-0.11 -5.816,-1.33 v -34.403 c 0,-1.052 0.386,-1.774 1.217,-2.384 3.436,-2.271 11.855,-2.435 15.015,-2.435 6.204,0 8.144,3.435 8.144,10.747 v 8.918 c 0,5.594 -0.112,10.693 -8.2,10.693 m 0.388,-19.889 c 0,-2.103 -0.388,-3.989 -1.996,-3.989 -2.659,0 -6.756,0.556 -6.756,0.942 V -8.42 c 1.496,0.776 4.097,1.33 6.756,1.33 1.608,0 1.996,-1.884 1.996,-3.933 z M 145.12,0 c -2.825,0 -5.041,-0.388 -7.922,-1.108 -0.442,-0.11 -0.72,-0.39 -0.83,-0.776 -0.112,-0.497 -0.056,-0.943 0.11,-1.385 0.444,-1.052 1.22,-4.599 2.437,-4.433 1.22,0.222 2.716,0.444 3.824,0.554 1.607,0.168 2.437,0.168 3.323,0.058 1.885,-0.222 2.881,-1.552 2.881,-3.989 v -2.05 c -2.047,0.386 -4.597,0.83 -7.478,0.83 -7.534,0 -8.422,-3.821 -8.422,-8.586 0,-5.596 1.608,-9.583 8.422,-9.583 4.543,0 15.29,0.774 15.29,5.317 v 13.85 C 156.755,-3.933 152.932,0 145.12,0 m 3.823,-23.6 c -1.052,-0.442 -2.881,-0.998 -5.153,-0.998 -2.381,0 -2.935,0.998 -2.935,3.216 0,2.493 0.554,3.489 2.935,3.489 2.108,0 4.211,-0.498 5.153,-0.996 z"
             style="fill:#000000;fill-opacity:1;fill-rule:nonzero;stroke:none"
             id="path504"
             inkscape:connector-curvature="0" />
        </g>
      </g>
    </g>
  </g>
</svg>
